/* XPM */
static char *_332f83a8cf242289fdf04913c86ff038LfJKMH3gOAZt6qH[] = {
/* columns rows colors chars-per-pixel */
"32 32 148 2 ",
"   c None",
".  c #94944D",
"X  c #97984F",
"o  c #9C994E",
"O  c #979751",
"+  c #9D9C54",
"@  c #9E9D5C",
"#  c #A19E52",
"$  c #A4A255",
"%  c #A9A657",
"&  c #ADA857",
"*  c #A5A45A",
"=  c #A9A65A",
"-  c #ACAB5C",
";  c #B1AE5D",
":  c #B2B15F",
">  c #9E9D62",
",  c #A6A664",
"<  c #ACAC61",
"1  c #A5A56E",
"2  c #ABAA69",
"3  c #B1AE61",
"4  c #B4B363",
"5  c #B9B664",
"6  c #B7B964",
"7  c #BBBA66",
"8  c #B5B569",
"9  c #B8B768",
"0  c #BCBB6A",
"q  c #A5A470",
"w  c #ABAB72",
"e  c #ADAF7A",
"r  c #AFB07D",
"t  c #BDBD73",
"y  c #BEBF72",
"u  c #BCBC70",
"i  c #B5B379",
"p  c #B7B679",
"a  c #BFBE7D",
"s  c #C1BE67",
"d  c #C0BF69",
"f  c #C0BF6A",
"g  c #C1BF6A",
"h  c #C0BF6B",
"j  c #C0BF6C",
"k  c #C0BF6D",
"l  c #C1BF6D",
"z  c #C1BE6D",
"x  c #C0BE6B",
"c  c #C0C067",
"v  c #C0C068",
"b  c #C0C168",
"n  c #C0C069",
"m  c #C0C06A",
"M  c #C1C06A",
"N  c #C0C16A",
"B  c #C1C16A",
"V  c #C1C06B",
"C  c #C1C16B",
"Z  c #C2C16B",
"A  c #C2C26A",
"S  c #C3C26B",
"D  c #C4C16B",
"F  c #C1C06D",
"G  c #C2C06C",
"H  c #C2C16C",
"J  c #C3C36C",
"K  c #C2C26D",
"L  c #C3C26D",
"P  c #C2C06E",
"I  c #C3C26E",
"U  c #C2C36E",
"Y  c #C3C36E",
"T  c #C3C26F",
"R  c #C4C16C",
"E  c #C4C26C",
"W  c #C4C26D",
"Q  c #C4C36D",
"!  c #C4C26E",
"~  c #C4C36E",
"^  c #C4C46D",
"/  c #C5C46D",
"(  c #C6C46C",
")  c #C6C56C",
"_  c #C6C46D",
"`  c #C7C56D",
"'  c #C4C46E",
"]  c #C4C46F",
"[  c #C5C46F",
"{  c #C6C46E",
"}  c #C6C56E",
"|  c #C6C56F",
" . c #C4C36C",
".. c #C8C76D",
"X. c #C7C86E",
"o. c #CDCC6D",
"O. c #C2C371",
"+. c #C4C370",
"@. c #C2C472",
"#. c #C4C470",
"$. c #C5C471",
"%. c #C6C570",
"&. c #C7C670",
"*. c #C6C770",
"=. c #C6C671",
"-. c #C6C472",
";. c #C6C572",
":. c #C7C572",
">. c #C5C473",
",. c #C8C770",
"<. c #C8C671",
"1. c #C9C672",
"2. c #C9C871",
"3. c #C9C872",
"4. c #CACB73",
"5. c #CCCC73",
"6. c #C9C974",
"7. c #CDCB75",
"8. c #CECD74",
"9. c #CDCA74",
"0. c #C3C27C",
"q. c #C8C67B",
"w. c #CECD7E",
"e. c #D0CD74",
"r. c #D7D67E",
"t. c #D2D17B",
"y. c #B2B381",
"u. c #BBBB87",
"i. c #BFBE84",
"p. c #BABA8C",
"a. c #B7B790",
"s. c #C5C582",
"d. c #C7C688",
"f. c #D3CF83",
"g. c #D5D383",
"h. c #D9D787",
"j. c #D9D884",
"k. c #DCDC84",
"l. c #DEDD85",
"z. c #DFDF87",
"x. c #DAD887",
"c. c #D4D18C",
"v. c #E1E185",
"b. c #E3E28B",
"n. c #E4E28E",
"m. c #D4D3A7",
"M. c #D6D6AB",
"N. c #D6D6B2",
/* pixels */
"                                a.                              ",
"                      w 2 * * $ $ * * @ > q                     ",
"                  2 < 3 3 6 6 6 5 5 4 < - * @ 1                 ",
"              w , 4 6 H U X.Z 7 Z d { >.j 0 4 $ @ y.            ",
"            2 < 6 >.*.z d ( 1.r.k.n.l.E >.E { *.3 * w           ",
"          , 3 0 E E E 7.v.b.v.j.7.Z 1.0 >.>.{ 5.4.0 $ w         ",
"        2 4 @.*.E E z ; - 4 l 5 D 5 d 7 H z >.{ U *.U $ r       ",
"      i - 0 0 H ` d Z 3 3 % z 0 4.Z 0 z *.0 d 0 j X.*.m + p.    ",
"      < 9 5 5 H { E d *.:.4 0 0 E 7 H 0 @.0 7 7 7 m m U 4 ,     ",
"    2 9 0 5 0 z 0 0 0 0 k 3 9 9 E 0 y 0 u 0 7 d 7 m 7 j U - r   ",
"    8 0 5 0 l 0 0 5 0 5 z 3 9 5 z 0 0 8 u 9 m 7 m Z 0 m m 6 2   ",
"  p 9 9 9 0 0 5 0 0 0 0 0 - 5 9 x 4 6 9 u 5 0 Z m Z 7 c m U ; i.",
"  8 5 5 6 5 4 9 6 0 0 5 9 - 5 4 0 3 5 4 t 9 9 7 6 7 7 c J X.6 i ",
"  8 6 : 6 0 6 4 3 5 0 9 8 - : - 7 3 9 3 @.0 0 7 7 5 H Z c { 7 2 ",
"N.6 6 4 9 5 0 5 3 4 5 8 8 $ - : 7 ; 9 8 @.0 s : 6 : 0 { ) Z s - ",
"N.; 5 6 5 5 6 6 6 4 5 4 9 = < - 9 3 3 9 H 0 7 s 7 c 7 Z ..) J - ",
"m.; 6 4 6 5 5 5 3 9 9 3 u = 3 & 9 ; 4 5 l z z s 5 9 z *.3...D - ",
"m.4 5 6 4 5 6 : 4 5 5 3 0 - ; & ; & 3 4 z x s s 5 s 0 E ` ` Z : ",
"N.7 5 4 4 5 5 ; 9 3 5 z 7.9 5 l 9 s 5 x 1.x 4 x 5 s z E ) { J 4 ",
"  u 5 4 5 5 ; 9 5 3 z # % # # # # = % & & 3 s x 7 5 z 1.{ *.{ 9 ",
"  l 0 6 0 l x x d ` 5 9 # - = : & 3 ; ; & x s l E D t.:.4.{ 7 0.",
"  s.1.< ; 4 % ; : ; $ = % # # = # # 3 # # 3 # s 7 7 1.3 5 E 7 i.",
"    :.* 3 s 5 ; ; 3 % < 4 * 3 ; 3 3 < 3 3 3 3 4 3 = 3 E 4 7 H   ",
"    l 3 # s & ; ; = ; # & # $ = & # # 3 # = 3 % o = + 3 4 Z a   ",
"      q.* * d g J c c 7 6 7 5 7 7 5 5 m 0 0 b A e.( 7.3 5 6.    ",
"      d.1.o # $ + # # $ $ $ & # % & - * - $ $ * * * = - ..d.    ",
"        q.7 * $ * * = = : ; ; 6 = 4 - 8 5 - < - - < < 0 q.      ",
"          q.D ; = * < @ % o * * $ * - * $ 4 < < - < H q.        ",
"            q.e.- $ * + < X X . $ + X O @ + - - 4 e.f.          ",
"              s.t.` % . O + X , . . = + . + - J :.c.            ",
"                  g.t.7.6 < * * * * < 4 9 7.7.x.                ",
"                      g.g.w.6.0 0 0 @.w.h.x.                    "
};
