/* XPM */
static char *e36f61a121ed4339bdfa774057b14a2cJTUu2ypas3Odwh2J[] = {
/* columns rows colors chars-per-pixel */
"64 64 174 2 ",
"   c None",
".  c #73732F",
"X  c #7D7C3B",
"o  c #817E3C",
"O  c #858034",
"+  c #84833D",
"@  c #89863D",
"#  c #8D8A3D",
"$  c #918B3E",
"%  c #858542",
"&  c #898645",
"*  c #8C8B44",
"=  c #8D8C49",
"-  c #928E44",
";  c #908F4A",
":  c #8F914B",
">  c #959145",
",  c #9A9445",
"<  c #94934B",
"1  c #99954B",
"2  c #97994E",
"3  c #9C9A4D",
"4  c #969651",
"5  c #9A9750",
"6  c #969850",
"7  c #9C9C53",
"8  c #9E9D59",
"9  c #A29D4D",
"0  c #A19E53",
"q  c #A19F5B",
"w  c #9EA05D",
"e  c #A5A14E",
"r  c #AAA54F",
"t  c #A4A255",
"y  c #A9A656",
"u  c #ABA956",
"i  c #A5A45A",
"p  c #A9A65B",
"a  c #A7A85D",
"s  c #ACAB5C",
"d  c #B1AC56",
"f  c #B1AE5D",
"g  c #AFB15D",
"h  c #B3B15E",
"j  c #BAB55E",
"k  c #A4A461",
"l  c #A8A764",
"z  c #ACAC61",
"x  c #A4A46B",
"c  c #A5A86E",
"v  c #ABAB6A",
"b  c #B1AE61",
"n  c #B1AF6C",
"m  c #AEB062",
"M  c #B5B363",
"N  c #B9B664",
"B  c #B6B867",
"V  c #BBBA66",
"C  c #B5B56A",
"Z  c #B9B66A",
"A  c #B7B86A",
"S  c #BCBB6A",
"D  c #A3A273",
"F  c #ABAB72",
"G  c #ABAB7B",
"H  c #B1AE70",
"J  c #B4B473",
"K  c #B8B776",
"L  c #B6B873",
"P  c #BCBC72",
"I  c #B4B47C",
"U  c #BCBD7C",
"Y  c #C1BE66",
"T  c #C1BF6C",
"R  c #C1BF71",
"E  c #C1BF7B",
"W  c #BFC06A",
"Q  c #BFC072",
"!  c #C1C166",
"~  c #C8C466",
"^  c #C3C26D",
"/  c #C8C66E",
"(  c #CAC96F",
")  c #C4C372",
"_  c #C8C672",
"`  c #C8C674",
"'  c #C9C673",
"]  c #C7C871",
"[  c #C9C972",
"{  c #CACA71",
"}  c #CCCB72",
"|  c #CBC974",
" . c #C9C974",
".. c #CDCC74",
"X. c #CBCA74",
"o. c #C4C37B",
"O. c #C9C67A",
"+. c #C8C879",
"@. c #CCCB78",
"#. c #CDCC7B",
"$. c #D1CE75",
"%. c #D1CE7A",
"&. c #D3D277",
"*. c #D3D176",
"=. c #D8D673",
"-. c #DBD877",
";. c #D4D37A",
":. c #D5D27B",
">. c #D8D77F",
",. c #D9D67C",
"<. c #DBD97D",
"1. c #A8A681",
"2. c #ADAC83",
"3. c #ABAD88",
"4. c #B3AF87",
"5. c #B3B484",
"6. c #B6B884",
"7. c #BBBA86",
"8. c #B0B188",
"9. c #BDBB8A",
"0. c #B3B393",
"q. c #BAB894",
"w. c #BFBD9A",
"e. c #C1BF84",
"r. c #C0BE8B",
"t. c #BEC08F",
"y. c #C2C283",
"u. c #CAC783",
"i. c #CDCB82",
"p. c #C4C48C",
"a. c #CAC78B",
"s. c #D5D481",
"d. c #D9D782",
"f. c #DFDF86",
"g. c #DCDA83",
"h. c #DDDB88",
"j. c #C4C492",
"k. c #CBCB95",
"l. c #C6C69A",
"z. c #CCCB9D",
"x. c #D2D493",
"c. c #D4D29A",
"v. c #E0DF81",
"b. c #E3DE84",
"n. c #E0DD88",
"m. c #E6E383",
"M. c #E5E38E",
"N. c #E4E38C",
"B. c #E8E68F",
"V. c #EDED8F",
"C. c #E5E493",
"Z. c #EEED96",
"A. c #F0EE9C",
"S. c #F4F49C",
"D. c #C6C6A7",
"F. c #C1C2A7",
"G. c #C8C6A0",
"H. c #CDCEA3",
"J. c #C9CAA8",
"K. c #D3D3A6",
"L. c #DAD9A7",
"P. c #D4D3AC",
"I. c #DEDDAF",
"U. c #CACCB0",
"Y. c #D3D3B2",
"T. c #DADBBA",
"R. c #F2F1A2",
"E. c #F6F5A8",
"W. c #FAF9A9",
"Q. c #E3E5BC",
"!. c #DADAC1",
"~. c #E2E2C0",
"^. c #EAEACC",
"/. c #ECEBD3",
/* pixels */
"                                                                                                                                ",
"                                                  G c F v x v C v i k x x D D 1.                                                ",
"                                            D F L A s i t 2 2 < < < 4 0 7 i l l k D D                                           ",
"                                      D v K C i 2 < < 2 2 t i i p a a a 5 < < : : 7 k J F 3.                                    ",
"                                  D v S M 7 < 6 a S W Q W W ^ ! ] V ^ S V V V z i 2 * & 7 v G 8.                                ",
"                              4.c B a 2 3 s S ^ Q ) ] W V W V V V V B V P S S S S M C a : & 7 J 2.0.                            ",
"                            F L z 6 7 m S ) ) S S ] ^ ] ^ ! ! ^ ] ! ! N V N T ^ S W W W A m > o 7 L 8.                          ",
"                          F z < 6 m ) ) S ] S W W ~ ~ ^ W W ! ~ ! ^ ] [ v.N.` S ) W S V W ^ V s % & v 5.                        ",
"                      q.F i = a S ) ) ^ ^ ^ W M ! ' ^ ^ Y Y } %.;.M.E.R.B.,.V ` ^ ` ) S ` ` [ / W i + 6 I D.                    ",
"                    2.S 3 < A +.^ S ` ] X.^ / ! ! ( / } <.Z.W.E.A.B.<.../ ..N ^ ` X.^ ^ W / [ ..W ) z o = 7.J.                  ",
"                  1.v = 8 ) W V ) ^ ^ ^ S ] ..g.C.Z.Z.S.V.b.d.' / ~ V @.%.S M ) ) ) W S ^ ] ....] ] ] B 2 * L F.                ",
"                2.C 1 l Q ) X.! ^ Y ! ) / W / g.h.N.g.} [ ~ Y f d f y u @.^ h ' ^ ) X.) ` ] W / ] ^ ^ ) S < % I U.              ",
"              r.J 2 a Q ) W W S [ ^ ^ ! ^ N y f a 0 p ^ } p d Y @.g.! V ` S f Y ) ) V S ^ ^ ] / W ] ] ..W W 2 & 9.!.            ",
"              F 5 7 ) A ] W [ ..' ! / ' ' N # @ - # * ^ _ f %.b./ Y N s ) ^ M ` T S V ^ ^ ) ^ ^ ^ ^ ] ^ ] ] W & 4 j.            ",
"            9.t 3 Q W S V M W / ^ ! V S ^ Y ` Z T / 3 S ` Z h Z ' ..^ S S ^ S @.` ^ M ^ S W ! S ^ ] ] ! ^ ^ B C X w H.          ",
"          G.C 2 Q ^ N V V S / ^ ! / / Y T R T R ' ` i N ^ N S R ` / ^ V #.S Z ` ` ^ S B ) Y V V W V W ` ^ ` ^ W z X L !.        ",
"          I > M W M N V M V Y ) ' } / S V ' ^ ) ) N t V R N S ) Y / N N ) S M +.W S V M S Y S V W W S ^ S ^ [ V W 7 % t.        ",
"        q.t i P M M M V S S ^ Y Y ^ ^ V V ) S ^ S ) 0 N ) M N T T Y M N ) S Z ) Q Q W S V S ! M j N ! S M W W / W A % k Y.      ",
"        n 2 Q Q S V N S V S T S S ^ T M ^ ) V V T ) t Z T b N ^ ) ^ Y N ' ^ Z P A L A V S S W ^ S ! / N V W W ^ W ^ a % p.      ",
"      l.t a Q S S M ^ P Q S N S S M b S S M h Z ) T i Z ) s Z V ^ ` Z M ) T b ) A Q M V ! N V / ^ V S W W ^ ^ W V ^ B : k Y.    ",
"      J < V V M M S S S R T M ) S M M V S ^ S C T Z p Z T p Z R Y ` M f ) M z P C P V S S V V V S V ^ ^ B V W ] W ^ ^ s * k.    ",
"    l.l k Q S V M N S ! ^ Y Z M ` N C #.Y M S S P Z q N T b N T Z S V f ) S M Q Q A S S / V V ( Y [ ] S S ! j j W S ! S * J ^.  ",
"    y.t A g M Q N S T S S N Z T T N T S S S S S T R 0 b R p Z T V V S s S M C Q C A C S N W ] W ^ Y ! V S S N W / W ! V w < H.  ",
"    L w S N S M f S Z N N M N Z N Z S S V M Z S T Z 0 b Y M Z T S R b y S S a P A S M S N j ] j V N ^ V S ! ^ W ! ] W W h = a.  ",
"  K.s a B W B V M V B S N N Z N N M M S S B M V P A 7 z R b M N Z Y b s R Z b E Q A A B S N V V N N S V V V ^ W ` ! Y / ) < U ^.",
"  j.s M M A g M M W S V M N N f M V ) ^ V S V A A S 0 b Y p f Y Y M M i T N p Z ) o.S M V ! B j W j V W V V W ^ W ` ` ! W 0 p T.",
"  y.t S M M h M M M S V M M h a M s M Y S A S z C N 0 b b f y N N S f b R N y Z Q Q S V S V S W W V S V ^ ^ ^ ^ V ! [ ^ ^ s < H.",
"  L s S S g V C V M V B S S h M M M M S S S V B C Z 1 s b y p Y M Z b s T Z b ) Q S M S ^ B j N V V h V ] ` ! W W ! ! ^ V M 2 a.",
"  L u N V h h V S S A V S S V M s M M V V V M L A M - p C f f Z T f M i Z Z b E o.) V Q W j N j h j j N S ^  .! W / ~ V ( S > y.",
"/.b M V M M h N M S V ! N f V M M h h M V C z M M M 7 b M s f N M M M p Z M p ) ) ) ^ V V V N V j N j h W ! ^ ] [ ~ ( ! V ^ > J ",
"~.t f M V V M B S V M M M s M S V s V B C C V m A A 2 p f p s M Y M b i Z N b T P S V V V V V N W N V W j V V ^ / ~ ^ Y ! } 3 v ",
"Q.l h M V M A B M V S B h M S N s h B V M V m M L S 0 z N p y f M Y b y N f M ) V ^ S M ! / Y N ! ! W W W ^ ^ ^ ] { ] [ ~ V w C ",
"Q.l m V h h B M M V S S S M V s h M M V M Z f Z T E 0 l R y 9 b M Y b 0 R Y b E ) ^ S S S Y V V j j V Y ^ ^ ) X.%...! ~ ^ V 3 m ",
"P.z M V M V N h M B M M M V h h M A S S S s M C Z R 9 p Y 0 y j N s b y Y b d R ) ` S T ) T j ! V N ^ V B ) X.X.] ( ( ! V ( t v ",
"~.z V W M M B V M V V S h M M M M M h M b b Z b Z R 0 l b 9 d R Z Y s 0 T f d R ^ ` ^ Z Y N V V N T N S V ) W ! ( ^ ( W ! W r m ",
"/.Z M S g N h M B M V V B M h h V M Z V s S Z Y N N d l f M 9 9 9 9 y s n n d j j V Z S S V ^ V j S V V V ^ ^ ] ( ( ( ( / ^ w J ",
"  C b V V M g M M M S M N j u M M V C s Y Z Z :.b.b.b l f ' %.$.R T R R d b $.-.-.=.T M h Z Y Y V S N ) T T ` ! W ~ W ^ W ^ t I ",
"  U M S V B h M M M N h f M M M M M M M M Z s Z R N Y N M Z h Z Y M b Y Z M R Y Y Y b N Z Z Z Z V V N Y ^ ` X.! ( ^ ( ^ / V t p.",
"  p.N M N N M M S V j M f M T Z h h M A M Z - q p d 9 q 9 9 q q 0 p l l y p p f f p p Y Y Z b Y S V V N ^ S X.[ ( ^ ^ ) ` j u z.",
"  k.M P V M M B B N h s j N p f h g s h Z Z , * - , o o $ $ $ $ o - , , - , $ , , , f M j Z Y M h N V ^ S ! ^ ! W ( ^ ../ ` V K.",
"  L.R V M M M M Y %.d.s.' Y :.,.g.g.d.M M :.d.S y O.d.$.:.%.%.,.$.Y s.,.-.| ,.Y Y g.g.Y R h.g.g.n.%.N Y @.N.C.M.} ~ ^ ! M s +.T.",
"    y.S M M N M Z y p N T 0 s / , 3 :.^ < i s 3 i - 1 q 1 @ 9 N 9 $ 5 b - o 1 b , p Y 5 5 Y Z > s v.~ $.N.) = i ;.( Y V M 7 y.  ",
"    y.S ^ M M p s f T 9 1 T q f ! e a y p t b s s q q @ 1 b b q , q 0 b b R & 9 p b p 0 9 Y M d d %.d Y T u V t M ` S ^ S M j.  ",
"    K.T P M t i f Z Y Y - T y f <.{ t 1 y q s i f t z 1 b b Z , p q 8 Y E Y 0 q y p n Y y f Y n.} 0 0 Z R ^ :.s C V ! T s Z Y.  ",
"      K V C 7 t M M M N O.j 9 j , > Z Z 0 5 b f y 0 t f b b 9 y Y q q n $ 0 s b 0 p p 0 0 d T - z b f 0 Z h / t b N Y N s e.    ",
"      7.S +.a & Z R T j Y Y y f S , n Y M 1 Z d.) s 0 b b b y f Y b q Y 0 9 R R f n Y d b Z d 0 0 R b % z Z $.j R y ` M b z.    ",
"        L P N < 0 s.%.y p j y h R f , Z R , ; b N - 0 7 b s ) h 9 q b l R %.d 9 b l T E Z b T Y O y ) p % q %.%.z f ) y E       ",
"        a.) M f - ; 9 , 9 r 9 e r Y 9 $ d h 9 - $ 9 s - - $ - , , , - o * $ * 9 , - o - , - o 9 d o $ N j * o o b @.V N P.      ",
"          E ^ S s 7 C d.:.g.<.,.,.<.<.,.$...;.,.$.;.$.$.,.:.d.g.:.%.,.;.:.d.d.d.,.,.g.,.,.,.<.m.m.m.-.=.<.m.' T ^ S h E         ",
"          k.+.^ z 0 1 M C M Z f M b f M M M M h M M s V M j f Z Z M M N V ) ^ T S S T S S P +.] @.` ` ) i.%.s S j S T P.        ",
"            U S R f @ & < 1 3 , < - < - * > < # $ * # & $ @ @ - - $ $ , 1 - < - @ - > * > : < & = & ; 4 4 = - Z T Y k.          ",
"              J ' Z i 1 7 0 3 3 2 7 i i i a f N V u h ! @.^ y 9 Y R ^ ' s 0 i S %.s y 7 i i t w i 7 8 i i i b Y V y.            ",
"              k.) ` j f f s s a s s i M n 7 P S f j M Z 0 S @.p i t t 7 t M ) ) M y M Z A B m s C m P C M B T Y P T.            ",
"                j.R ` h y y s f s a i a z i o q t u t i < 2 V p i Z M N M s f t Z ` f b m m m m m v z m m m Z ) P.              ",
"                  7.E @.V u h f s i i i a C 8 8 p p = z C 7 p 7 % > t S M w a i # g b y m a m a m z m m S N S L.                ",
"                    5.S :.( s u y a i i i i 8 8 i a % & l i t 0 T ^ = 8 w = a t * w l i s a g a a z a ^ ` #.I.                  ",
"                      6.S d.) s e t i y a i w i S C w 6 w 6 @ < i z i i 2 < = L C i 6 z m m g g p f $.$.O.L.                    ",
"                          K %.g.V t a s a 7 & & < w < < * o 5 5 . 4 7 & 7 a o % 8 * < a g m a a T ( } u.                        ",
"                            L  .g.,.V t 7 7 7 7 4 7 w * 2 M z a 7 + % i M a z = + 5 a i w e M ] / ' c.                          ",
"                              5.P &.-.[ g t y t i k i l z z m a i z z z z z m a m a w i g ] <.&.E c.                            ",
"                                  I ) b.g.;.Y y t 7 i i i i i a s w i i z s a w t s ` X.&.g.%.c.                                ",
"                                      7.o.g.B.n.:.Q M s u 2 7 w 7 5 2 y a a M ] i.g.<.;.) x.                                    ",
"                                            Q i.s.C.C.N.h.d.@.X...@.@.%.;.g.h.h.s.+.i.                                          ",
"                                                  7.Q o.+.i.) P ) :.X.S o.#.o.a.                                                "
};
