/* XPM */
static char *result[] = {
/* columns rows colors chars-per-pixel */
"16 16 189 2 ",
"   c #989852",
".  c #9B9B53",
"X  c #9D9C53",
"o  c #9B9A55",
"O  c #9D9D55",
"+  c #A3A255",
"@  c #A7A357",
"#  c #A4A35B",
"$  c #A6A65B",
"%  c #A8A558",
"&  c #A8A559",
"*  c #A9A659",
"=  c #ABA759",
"-  c #AAA75B",
";  c #ABA75C",
":  c #A6A85E",
">  c #AAA85A",
",  c #ABA95A",
"<  c #ABA85B",
"1  c #ABA95B",
"2  c #ADA959",
"3  c #ACA85B",
"4  c #ACA95B",
"5  c #AAA85C",
"6  c #ABAB5C",
"7  c #AAAA5D",
"8  c #ABAB5F",
"9  c #ADAA5C",
"0  c #ADAB5E",
"q  c #AFAC5C",
"w  c #AFAC5D",
"e  c #ADAD5F",
"r  c #B0AC5C",
"t  c #B1AD5C",
"y  c #B1AE5C",
"u  c #B1AE5D",
"i  c #B1AD5F",
"p  c #B0AE5F",
"a  c #B2AE5E",
"s  c #B2AF5E",
"d  c #B3AF5F",
"f  c #B3B05E",
"g  c #B3B05F",
"h  c #9F9E61",
"j  c #9E9E67",
"k  c #A4A461",
"l  c #A0A065",
"z  c #A7A665",
"x  c #A6A666",
"c  c #ACAC60",
"v  c #AEAD64",
"b  c #AEAE67",
"n  c #A4A46A",
"m  c #A5A56D",
"M  c #ABAB68",
"N  c #B2AF61",
"B  c #B2B060",
"V  c #B2B061",
"C  c #B3B061",
"Z  c #B1B360",
"A  c #B3B260",
"S  c #B2B261",
"D  c #B0B063",
"F  c #B0B163",
"G  c #B3B162",
"H  c #B3B263",
"J  c #B5B360",
"K  c #B4B261",
"L  c #B7B360",
"P  c #B4B162",
"I  c #B4B163",
"U  c #B5B362",
"Y  c #B6B461",
"T  c #B4B462",
"R  c #B5B462",
"E  c #B5B563",
"W  c #B6B562",
"Q  c #B6B563",
"!  c #B3B364",
"~  c #B3B266",
"^  c #B5B364",
"/  c #B3B465",
"(  c #B5B464",
")  c #B6B464",
"_  c #B6B465",
"`  c #B7B565",
"'  c #B6B664",
"]  c #B7B664",
"[  c #B7B665",
"{  c #B5B466",
"}  c #B4B467",
"|  c #B6B566",
" . c #B8B662",
".. c #B8B664",
"X. c #B8B665",
"o. c #B9B665",
"O. c #B8B765",
"+. c #B9B765",
"@. c #B9B666",
"#. c #B9B766",
"$. c #B8B767",
"%. c #B9B767",
"&. c #BAB766",
"*. c #B9B965",
"=. c #BBB964",
"-. c #B9B967",
";. c #BBB966",
":. c #BAB867",
">. c #BBBA67",
",. c #BDBB64",
"<. c #BCBA66",
"1. c #BDBB66",
"2. c #BCBB67",
"3. c #BFBD67",
"4. c #BFBE67",
"5. c #B6B56C",
"6. c #B9B76E",
"7. c #B9B869",
"8. c #BBB968",
"9. c #BCBA68",
"0. c #BCBB68",
"q. c #BCBB69",
"w. c #BEBB69",
"e. c #BCBB6A",
"r. c #BDBD68",
"t. c #BEBD68",
"y. c #BFBD68",
"u. c #BEBD69",
"i. c #BFBD69",
"p. c #BEBE69",
"a. c #BCBC6A",
"s. c #BDBC6A",
"d. c #BFBD6B",
"f. c #BEBE6A",
"g. c #BFBE6B",
"h. c #B9B96C",
"j. c #B9B96D",
"k. c #BDBD6E",
"l. c #BFBE6E",
"z. c #B6B675",
"x. c #BAB871",
"c. c #BFBD75",
"v. c #BCBB7A",
"b. c #BDBC78",
"n. c #C0BE69",
"m. c #C0BE6A",
"M. c #C0BF6A",
"N. c #C0BE6B",
"B. c #C2BF6B",
"V. c #C0BE6D",
"C. c #C0C06A",
"Z. c #C3C16B",
"A. c #C2C26B",
"S. c #C4C36A",
"D. c #C5C56B",
"F. c #C0C06C",
"G. c #C2C06C",
"H. c #C2C16C",
"J. c #C2C06D",
"K. c #C1C26E",
"L. c #C2C26E",
"P. c #C4C36E",
"I. c #C6C36E",
"U. c #C5C46D",
"Y. c #C6C56D",
"T. c #C5C46F",
"R. c #C6C46E",
"E. c #C8C66D",
"W. c #C9C76F",
"Q. c #C9C86E",
"!. c #C8C96F",
"~. c #C4C370",
"^. c #C5C370",
"/. c #C6C470",
"(. c #C3C376",
"). c #C8C571",
"_. c #C8C870",
"`. c #C9C970",
"'. c #CAC870",
"]. c #CAC970",
"[. c #CACA71",
"{. c #CACA72",
"}. c #CECE75",
"|. c #C9C87C",
" X c #D1D079",
".X c #D3D278",
"XX c #D5D37C",
"oX c #C5C389",
"OX c None",
/* pixels */
"OXOXOXOXOXOXOXl h j OXOXOXOXOXOX",
"OXOXOXOXOXv F S A H 8 k OXOXOXOX",
"OXOXOXz L.[.}..XXX XT.`.F.n OXOX",
"OXOXx {.W.M.:.).I.i.J.P.[.!.m OX",
"OXOXT.u.Z.N.` ( G.d.l.0.t.U.K.OX",
"OXb A.s.9.q.7._ w.8.j.0.n.p.D.M ",
"OX/ *.#.X.a.{ N @.^ h.2.1.r.S.| ",
"z.E O.+.K -.D 4 U I k.0. .r.Y.2.",
"b.Q O.] R [ } 9 s C V.i.=.f.].4.",
"v.] ' W T ) %.i d C 3.>.;.g.Q.C.",
"oX$...o.<.G @ % = 3 2 &.B./.R.e.",
"OX5.Y L t < - & > 5 ; w q V y.6.",
"OXOXm.r J f y u a g P C K B '.OX",
"OXOXx.,.+ # * , 1 0 p 7 : H.c.OX",
"OXOXOX(.E.6 o   X O . Z _.|.OXOX",
"OXOXOXOXOX^.! c $ e ~ ~.OXOXOXOX"
};
